<svg xmlns="http://www.w3.org/2000/svg" viewBox="0 0 600 600" role="img" aria-label="Polline Italiano 125 g"><defs><linearGradient id="gold" x1="0" x2="1"><stop offset="0" stop-color="#b47a14"/><stop offset=".45" stop-color="#f0c44f"/><stop offset="1" stop-color="#9a6410"/></linearGradient><linearGradient id="glass" x1="0" x2="0" y1="0" y2="1"><stop offset="0" stop-color="#fffaf0" stop-opacity=".95"/><stop offset="1" stop-color="#f7e7bf" stop-opacity=".9"/></linearGradient><pattern id="pollen" width="28" height="28" patternUnits="userSpaceOnUse"><circle cx="7" cy="8" r="6" fill="#e3a52a"/><circle cx="21" cy="10" r="5" fill="#b87418"/><circle cx="12" cy="22" r="5.5" fill="#f0c24a"/><circle cx="25" cy="24" r="4.5" fill="#8f5b16"/></pattern></defs><rect width="600" height="600" rx="40" fill="#fff"/><ellipse cx="300" cy="548" rx="170" ry="20" fill="#000" opacity=".08"/><rect x="154" y="82" width="292" height="74" rx="24" fill="url(#gold)"/><rect x="170" y="132" width="260" height="360" rx="48" fill="url(#glass)" stroke="#c9aa68" stroke-width="4"/><rect x="180" y="158" width="240" height="306" rx="36" fill="url(#pollen)"/><rect x="180" y="250" width="240" height="172" rx="22" fill="#fff8e7" stroke="#d5a634" stroke-width="5"/><path d="M210 250 Q300 205 390 250" fill="#fff8e7" stroke="#d5a634" stroke-width="5"/><g transform="translate(300 244)"><ellipse cx="0" cy="0" rx="18" ry="10" fill="#d79a20"/><ellipse cx="-20" cy="-8" rx="20" ry="12" fill="#e9bb45" transform="rotate(-22)"/><ellipse cx="20" cy="-8" rx="20" ry="12" fill="#e9bb45" transform="rotate(22)"/><circle cx="0" cy="-16" r="7" fill="#6b3c14"/><rect x="-10" y="5" width="20" height="26" rx="9" fill="#6b3c14"/><path d="M-10 13H10M-10 21H10" stroke="#f5d06b" stroke-width="4"/></g><text x="300" y="322" text-anchor="middle" font-family="Georgia,serif" font-size="56" font-weight="700" fill="#4b2b15">Polline</text><text x="300" y="367" text-anchor="middle" font-family="Georgia,serif" font-size="40" fill="#4b2b15">Italiano</text><text x="300" y="398" text-anchor="middle" font-family="Arial,sans-serif" font-size="18" letter-spacing="3" fill="#9a6a1a">100% NATURALE</text><rect x="180" y="420" width="240" height="44" fill="#e7b234"/><text x="216" y="449" font-family="Arial,sans-serif" font-size="16" font-weight="700" fill="#4b2b15">PRODOTTO IN ITALIA</text><text x="385" y="449" text-anchor="end" font-family="Georgia,serif" font-size="28" font-weight="700" fill="#4b2b15">125 g</text><rect x="252" y="456" width="32" height="7" fill="#17834f"/><rect x="284" y="456" width="32" height="7" fill="#fff" stroke="#ddd"/><rect x="316" y="456" width="32" height="7" fill="#c52b2b"/></svg>